<?xml version="1.0" standalone="no"?>
<!DOCTYPE svg PUBLIC "-//W3C//DTD SVG 20010904//EN"
 "http://www.w3.org/TR/2001/REC-SVG-20010904/DTD/svg10.dtd">
<svg version="1.0" xmlns="http://www.w3.org/2000/svg"
 width="796.000000pt" height="796.000000pt" viewBox="0 0 796.000000 796.000000"
 preserveAspectRatio="xMidYMid meet">
<metadata>
Created by potrace 1.11, written by Peter Selinger 2001-2013
</metadata>
<g transform="translate(0.000000,796.000000) scale(0.100000,-0.100000)"
fill="#000000" stroke="none">
<path d="M3678 6864 c-2 -1 -39 -6 -83 -9 -44 -4 -93 -8 -110 -10 -16 -2 -57
-6 -90 -10 -65 -7 -106 -13 -145 -20 -14 -3 -41 -7 -60 -10 -19 -2 -46 -7 -60
-9 -14 -3 -43 -7 -65 -11 -22 -3 -58 -10 -80 -16 -22 -6 -51 -13 -65 -15 -102
-18 -500 -134 -595 -174 -11 -5 -67 -28 -125 -51 -135 -54 -383 -173 -503
-243 -206 -118 -367 -227 -517 -349 -381 -309 -666 -653 -866 -1041 -134 -263
-236 -565 -269 -803 -3 -21 -7 -47 -10 -58 -19 -97 -27 -480 -13 -625 41 -405
194 -842 417 -1185 25 -38 50 -77 56 -86 52 -82 167 -228 267 -340 226 -252
497 -477 800 -665 l88 -54 2334 0 2335 0 53 31 c29 17 94 58 143 92 705 471
1180 1107 1366 1829 11 46 23 92 24 103 44 252 48 297 49 515 0 124 -3 254 -7
290 -54 454 -202 854 -462 1245 -51 77 -103 151 -115 165 -12 14 -34 40 -48
59 -88 113 -291 324 -402 418 -19 16 -46 39 -60 51 -14 11 -36 31 -50 42 -14
12 -74 59 -135 104 -417 310 -925 550 -1468 691 -139 37 -157 41 -212 50 -16
3 -37 8 -45 10 -15 4 -24 6 -110 20 -25 4 -54 9 -65 11 -11 3 -54 9 -95 15
-41 5 -88 11 -105 14 -28 3 -92 10 -205 22 -53 5 -688 12 -692 7z"/>
</g>
</svg>
